{"glyphs":{":":{"x_min":0,"x_max":313,"ha":313,"o":"m 190 313 q 174 312 159 318 q 144 324 133 335 q 109 358 109 384 q 109 410 116 425 q 124 439 134 448 q 153 463 175 463 q 196 463 211 460 q 226 458 238 451 q 269 436 269 406 q 269 370 245 342 q 223 317 190 313 z m 56 129 q 75 145 96 145 q 118 145 133 142 q 147 139 160 133 q 191 117 191 88 q 191 51 167 24 q 145 -1 120 -4 q 96 -6 81 0 q 66 6 55 17 q 44 27 38 41 q 31 55 31 73 q 31 92 38 106 q 45 121 56 129 z"},"$":{"x_min":0,"x_max":546,"ha":546,"o":"m 505 881 q 525 894 552 894 q 579 894 579 876 q 579 867 567 850 q 538 806 503 737 q 582 689 582 581 q 582 518 546 462 q 502 393 445 393 q 420 393 406 403 q 383 421 383 434 q 383 448 393 458 l 420 483 q 490 550 492 612 q 493 650 473 671 q 454 692 419 692 q 384 692 355 676 q 326 660 305 633 q 259 576 259 497 q 259 451 295 393 q 311 368 328 343 q 346 318 361 292 q 397 229 397 182 q 397 135 382 103 q 366 72 340 48 q 285 0 210 -4 q 177 -75 171 -99 q 165 -124 156 -128 q 147 -132 136 -132 q 125 -132 116 -128 q 106 -125 105 -118 q 104 -111 105 -99 q 107 -86 111 -69 q 118 -40 135 6 q 77 29 61 86 q 57 101 57 120 q 57 138 64 156 q 71 175 82 188 q 101 210 118 215 q 157 225 157 190 l 152 152 q 152 93 192 72 q 206 64 225 64 q 244 64 259 71 q 274 78 284 88 q 304 110 304 139 q 304 167 292 191 q 281 214 263 237 q 245 260 224 284 q 204 308 186 336 q 145 402 145 473 q 145 545 183 613 q 239 715 343 749 q 376 760 400 760 q 425 760 437 758 l 452 801 q 474 861 505 881 z"},"?":{"x_min":0,"x_max":517,"ha":517,"o":"m 256 407 l 364 494 q 457 567 457 633 q 457 666 438 684 q 420 702 395 702 q 370 702 353 693 q 335 684 324 670 q 302 644 302 613 q 302 593 309 578 q 316 563 316 558 q 316 553 312 544 q 307 535 297 527 q 275 510 254 510 q 233 510 223 517 q 213 524 206 535 q 194 556 194 585 q 194 615 207 646 q 220 678 245 703 q 301 759 389 759 q 456 759 499 718 q 541 676 541 613 q 541 502 440 425 l 379 379 q 296 318 255 267 q 244 251 236 238 q 227 224 220 213 q 212 202 206 196 q 199 189 189 189 q 180 189 172 204 q 164 218 164 247 q 164 276 176 305 q 189 334 209 359 q 230 384 256 407 z m 208 133 q 238 117 238 88 q 238 51 214 24 q 189 -5 157 -5 l 154 -5 q 123 -5 100 19 q 79 41 79 66 q 79 109 101 127 q 123 145 144 145 q 165 145 180 142 q 195 139 208 133 z"},"<":{"x_min":0,"x_max":637,"ha":637,"o":"m 546 575 q 567 575 567 546 q 567 515 541 500 l 201 302 l 550 99 q 567 89 567 79 q 567 68 563 62 q 560 56 555 52 q 542 42 527 42 q 511 42 500 48 l 105 266 q 66 289 66 302 q 66 315 96 331 l 529 570 q 538 575 546 575 z"},"'":{"x_min":0,"x_max":232,"ha":232,"o":"m 164 564 q 157 564 153 570 q 148 576 145 585 q 138 605 138 630 q 138 656 142 680 q 146 704 152 727 q 176 806 220 819 q 234 824 248 824 q 262 824 272 822 q 283 819 292 815 q 311 807 311 792 q 311 780 304 773 q 297 767 289 758 q 282 749 271 734 q 246 701 228 665 l 202 613 q 179 564 164 564 z"},"=":{"x_min":0,"x_max":618,"ha":618,"o":"m 550 504 q 577 504 577 481 q 577 464 566 453 q 546 433 524 433 l 116 433 q 82 433 82 457 q 82 474 93 484 q 113 505 132 504 z m 540 309 q 567 309 567 286 q 567 269 557 258 q 537 238 514 238 l 106 238 q 72 238 72 262 q 72 278 83 289 q 104 310 122 309 z"},"a":{"x_min":0,"x_max":542,"ha":542,"o":"m 412 130 q 412 85 444 85 q 466 85 480 92 q 495 99 500 99 q 510 99 510 88 q 510 46 466 16 q 419 -16 371 0 q 339 11 324 48 q 317 67 317 83 q 317 108 322 137 q 276 44 209 9 q 182 -5 152 -5 q 122 -5 99 8 q 77 20 62 42 q 30 88 33 157 q 36 244 84 328 q 128 406 196 455 q 264 505 323 505 q 382 505 418 451 q 452 505 478 505 q 506 505 520 495 q 547 476 539 461 q 417 210 413 148 q 412 140 412 130 z m 141 128 q 141 69 179 69 q 208 69 250 118 q 311 190 358 312 q 374 350 384 388 q 382 421 356 437 q 347 442 330 442 q 312 442 289 429 q 266 417 244 395 q 223 373 204 343 q 185 312 171 277 q 141 202 141 128 z"},"L":{"x_min":0,"x_max":518,"ha":518,"o":"m 439 693 q 374 693 307 533 l 226 328 q 148 132 78 71 q 179 106 315 118 q 335 120 354 120 q 372 120 393 114 q 415 108 430 96 q 464 69 464 21 q 464 -5 444 -5 q 434 -5 423 0 q 413 6 400 11 q 387 16 370 20 q 331 30 290 30 q 249 30 210 25 q 172 19 139 13 l 76 0 q 47 -5 32 -5 q 17 -5 9 2 q 1 8 -6 19 q -21 41 -21 55 q -21 78 -10 84 q 32 107 85 259 q 134 399 152 447 q 169 495 191 541 q 212 586 238 626 q 263 667 293 696 q 358 761 436 761 q 491 761 529 713 q 563 670 563 613 q 563 535 505 452 q 472 404 433 382 q 414 372 398 372 q 383 372 371 378 q 359 384 351 393 q 333 412 333 427 q 333 442 340 447 q 399 484 440 535 q 485 590 485 642 q 485 693 439 693 z"},"3":{"x_min":0,"x_max":537,"ha":537,"o":"m 227 291 q 208 291 208 305 q 208 339 231 363 q 239 371 262 378 q 285 384 321 406 q 356 427 386 457 q 452 526 452 614 q 452 652 433 674 q 414 695 384 695 q 355 695 331 683 q 307 670 289 651 q 250 611 250 568 q 250 527 273 517 q 283 513 283 504 q 283 487 266 472 q 234 445 212 445 q 190 445 177 452 q 163 458 153 471 q 134 496 134 529 q 134 562 143 587 q 152 613 168 638 q 184 663 206 685 q 229 707 257 724 q 316 760 373 760 q 430 760 462 745 q 494 730 514 707 q 550 664 550 593 q 550 478 444 377 q 405 340 369 322 q 411 310 427 253 q 432 235 432 213 q 432 190 423 164 q 415 137 400 113 q 385 88 363 67 q 341 45 313 29 q 254 -5 186 -5 q 115 -5 75 32 q 41 64 41 109 q 41 145 63 175 q 90 209 133 209 q 157 209 167 199 q 186 181 177 170 q 167 160 161 151 q 154 143 150 134 q 141 117 141 104 q 141 90 144 82 q 146 74 151 67 q 164 53 190 53 q 217 53 242 70 q 267 86 286 112 q 327 167 327 231 q 327 295 273 295 z"},";":{"x_min":0,"x_max":313,"ha":313,"o":"m 193 313 q 177 312 162 318 q 146 324 136 335 q 112 358 112 384 q 112 410 119 425 q 126 439 137 448 q 156 463 177 463 q 198 463 213 460 q 228 458 241 451 q 271 436 271 406 q 271 370 248 342 q 226 317 193 313 z m 9 -109 l 32 -85 q 77 -39 77 -3 q 77 27 57 61 q 50 72 46 81 q 41 90 47 106 q 54 121 73 132 q 92 144 113 144 q 134 144 147 138 q 161 132 170 121 q 188 100 188 69 q 188 37 179 12 q 170 -13 155 -36 q 141 -59 122 -78 q 104 -98 84 -112 q 64 -126 46 -134 q 27 -142 13 -142 q -1 -142 -1 -131 q -1 -121 9 -109 z"},"J":{"x_min":0,"x_max":393,"ha":393,"o":"m -171 -250 q -171 -235 -152 -229 q -17 -176 119 94 q 226 305 286 538 q 310 630 310 671 q 310 687 303 687 q 239 687 140 588 q 130 578 118 578 q 106 578 95 583 q 83 588 74 596 q 52 613 52 631 q 52 648 63 664 q 75 679 94 693 q 113 707 137 719 q 162 731 188 740 q 245 759 276 759 q 306 759 329 756 q 352 752 373 743 q 424 721 424 680 q 424 607 378 446 q 329 276 250 114 q 136 -115 9 -215 q -65 -273 -132 -273 q -157 -273 -168 -260 q -171 -256 -171 -250 z"},"V":{"x_min":0,"x_max":587,"ha":587,"o":"m 195 495 q 243 594 291 666 l 285 666 q 227 666 177 640 q 165 630 154 630 q 130 630 108 653 q 58 707 169 742 q 221 759 253 759 q 285 759 305 749 q 324 739 338 726 q 359 704 368 683 q 377 662 377 646 q 377 630 368 604 q 358 577 344 547 l 311 482 q 293 449 275 412 q 258 375 240 337 q 223 300 209 265 q 179 187 179 132 q 179 99 186 77 q 207 111 238 148 l 307 225 q 425 353 461 395 q 544 493 589 580 q 607 615 607 643 q 607 695 578 722 q 568 732 575 747 q 583 761 591 769 q 610 786 634 786 q 658 786 674 776 q 691 766 701 751 q 722 721 722 677 q 722 633 703 583 q 685 534 654 487 q 624 440 585 396 q 546 352 505 312 l 358 172 q 291 105 269 80 q 226 32 213 17 q 201 2 191 -1 q 182 -4 165 -4 q 148 -4 131 11 q 114 25 103 46 q 92 67 86 91 q 81 115 81 141 q 81 167 90 210 q 99 253 115 301 q 130 348 151 398 q 172 448 195 495 z"},"\"":{"x_min":0,"x_max":437,"ha":437,"o":"m 369 564 q 362 564 358 570 q 353 576 350 585 q 343 605 343 630 q 343 656 347 680 q 351 704 357 727 q 381 806 425 819 q 439 824 453 824 q 467 824 478 822 q 488 819 497 815 q 516 807 516 792 q 516 780 509 773 q 502 767 494 758 q 487 749 476 734 q 451 701 433 665 l 407 613 q 384 564 369 564 z m 164 564 q 157 564 153 570 q 148 576 145 585 q 138 605 138 630 q 138 656 142 680 q 146 704 152 727 q 176 806 220 819 q 234 824 248 824 q 262 824 272 822 q 283 819 292 815 q 311 807 311 792 q 311 780 304 773 q 297 767 289 758 q 282 749 271 734 q 246 701 228 665 l 202 613 q 179 564 164 564 z"},"7":{"x_min":0,"x_max":474,"ha":474,"o":"m 114 44 q 108 61 112 100 q 116 139 139 198 q 163 256 196 313 q 229 371 268 425 l 343 527 l 411 614 q 442 653 460 680 q 370 640 282 622 q 255 617 236 617 q 218 617 203 620 q 188 623 176 629 q 154 640 138 664 q 126 679 126 711 q 126 749 142 750 q 153 750 165 745 q 178 740 195 733 q 241 716 284 716 q 328 716 357 721 q 387 727 410 733 l 452 744 q 471 750 483 750 q 496 750 509 742 q 522 734 532 723 q 556 697 549 680 q 543 664 525 637 q 508 610 483 576 q 400 461 370 417 q 341 373 313 325 q 285 278 263 229 q 215 122 213 34 q 213 14 210 7 q 199 -14 159 0 q 127 12 114 44 z"},"S":{"x_min":0,"x_max":474,"ha":474,"o":"m 123 190 l 119 152 q 119 93 158 72 q 172 64 191 64 q 210 64 225 71 q 240 78 250 88 q 271 110 271 139 q 271 168 259 191 q 247 215 229 238 l 190 286 q 143 343 127 389 q 111 436 111 475 q 111 514 120 549 q 130 584 147 615 q 164 647 188 673 q 212 700 241 719 q 302 760 362 760 q 422 760 456 743 q 490 727 510 701 q 548 653 548 585 q 548 522 513 467 q 480 416 439 402 q 431 398 415 398 q 400 398 389 403 q 379 407 371 415 q 354 432 354 452 q 354 466 362 470 q 399 490 427 528 q 457 570 458 611 q 459 652 438 672 q 417 692 382 692 q 347 692 318 676 q 290 660 270 633 q 226 576 226 497 q 226 445 262 387 q 277 362 295 338 q 312 313 328 288 q 364 229 364 182 q 364 135 347 103 q 330 71 302 47 q 242 -5 166 -5 q 93 -5 54 38 q 23 73 23 113 q 23 157 48 188 q 67 210 84 215 q 123 225 123 190 z"},"}":{"x_min":0,"x_max":425,"ha":425,"o":"m -64 -148 q -64 -121 -20 -121 q 39 -121 77 33 l 98 116 q 158 358 300 363 q 241 387 241 468 q 241 522 271 597 q 330 741 330 800 q 330 842 301 842 q 265 842 265 864 q 265 890 340 890 q 436 890 436 805 q 436 747 389 627 l 365 563 q 339 497 339 457 q 339 387 383 377 q 390 375 390 366 q 390 356 387 347 q 385 339 380 331 q 369 313 353 312 q 245 306 190 79 q 183 49 176 19 q 168 -11 159 -39 q 149 -66 137 -90 q 125 -114 109 -132 q 74 -170 23 -170 q -50 -170 -60 -158 q -64 -154 -64 -148 z"},"Z":{"x_min":0,"x_max":501,"ha":501,"o":"m 468 17 q 468 -5 450 -5 q 439 -5 427 2 q 390 36 305 36 q 220 36 146 16 l 108 6 q 67 -5 46 -5 q 25 -5 17 2 q 8 9 2 20 q -12 44 -12 61 q -12 78 -7 93 q -1 108 21 142 q 43 176 74 217 q 105 257 143 303 l 222 394 l 380 569 l 496 695 l 431 670 q 304 622 256 622 q 208 622 181 631 q 155 640 141 663 q 127 681 127 736 q 127 758 140 759 q 152 760 163 755 q 173 750 187 743 q 225 726 274 726 q 322 726 359 731 q 396 736 426 743 l 478 754 q 500 759 515 759 q 529 759 544 750 q 559 740 570 728 q 598 697 598 680 q 598 662 580 634 q 562 606 531 571 q 500 535 460 494 q 243 271 204 228 q 114 129 82 70 q 174 111 300 128 q 334 132 354 132 q 374 132 387 130 q 401 128 413 122 q 436 109 456 75 q 468 51 468 17 z"},"x":{"x_min":0,"x_max":467,"ha":467,"o":"m 56 11 q 35 -4 24 -4 q 12 -4 5 -1 q -3 2 -9 7 q -24 19 -24 29 q -24 39 -13 47 q -13 47 17 71 q 97 137 149 214 q 106 333 110 413 q 112 452 144 480 q 173 505 206 505 q 216 505 219 499 q 222 492 222 479 q 222 466 221 451 q 220 437 220 421 q 221 405 223 387 q 228 337 232 309 l 248 336 q 304 424 378 476 q 420 505 450 505 q 478 505 493 498 q 521 483 512 468 q 510 465 506 464 l 494 458 q 417 424 297 293 q 272 266 253 241 l 271 184 q 302 81 346 81 q 365 81 377 87 l 395 95 q 400 97 405 97 q 415 97 415 87 q 415 44 371 15 q 342 -5 305 -5 q 233 -5 175 143 q 113 53 56 11 z"},")":{"x_min":0,"x_max":479,"ha":479,"o":"m -79 -246 q -99 -246 -99 -230 q -99 -221 -77 -204 l -38 -173 q -20 -159 0 -142 q 110 -39 186 106 q 287 298 287 524 q 287 639 253 731 q 222 813 177 845 q 167 851 167 858 q 167 865 170 870 q 173 876 179 880 q 190 890 207 890 q 224 890 247 876 q 270 861 291 836 q 312 810 331 775 q 350 739 364 697 q 395 605 395 518 q 395 431 380 355 q 364 280 338 212 q 312 145 278 85 q 244 25 207 -24 q 137 -117 57 -180 q -28 -246 -79 -246 z"},"&":{"x_min":0,"x_max":563,"ha":563,"o":"m 494 641 q 494 692 425 692 q 346 692 275 616 q 234 571 217 519 q 208 493 208 473 q 208 452 213 439 q 217 426 225 418 q 240 400 260 404 q 284 414 302 414 q 320 414 331 409 q 342 405 350 398 q 363 384 363 372 q 363 347 347 346 q 326 344 296 332 q 267 319 239 299 q 212 279 190 254 q 142 199 142 141 q 142 81 189 62 q 205 55 228 55 q 250 55 272 65 q 294 75 310 90 q 345 123 346 160 q 347 206 308 218 q 297 221 291 224 q 285 228 288 236 q 291 245 299 253 q 319 275 344 275 q 355 275 378 271 q 420 261 439 261 q 479 261 502 267 q 525 272 540 276 q 566 284 566 264 q 566 245 555 228 q 544 212 526 200 q 487 174 431 175 q 432 167 432 160 q 432 133 414 104 q 396 74 365 50 q 295 -5 206 -5 q 117 -5 70 45 q 34 84 34 138 q 34 244 122 327 q 151 355 178 366 q 126 388 108 451 q 103 472 103 499 q 103 526 114 558 q 125 590 144 620 q 164 649 192 675 q 219 700 253 719 q 327 760 408 760 q 490 760 533 711 q 569 671 569 615 q 569 555 519 497 q 470 439 425 439 q 399 439 379 460 q 360 480 360 495 q 360 510 369 515 q 454 561 483 607 q 494 624 494 641 z"},"_":{"x_min":0,"x_max":531,"ha":531,"o":"m -128 -170 q -161 -170 -161 -146 q -161 -126 -147 -113 q -124 -88 -104 -88 l 472 -86 q 498 -86 498 -110 q 498 -130 485 -144 q 462 -170 438 -170 z"},"v":{"x_min":0,"x_max":511,"ha":511,"o":"m 37 47 q 30 63 30 85 q 30 107 37 134 q 43 161 54 188 q 65 216 78 245 l 103 302 q 151 414 139 434 q 133 443 116 452 q 111 456 111 464 q 111 473 118 480 q 125 488 137 494 q 160 505 184 505 q 208 505 220 500 q 233 495 241 487 q 257 471 257 448 q 257 425 248 396 q 239 368 226 336 q 213 304 197 271 l 168 207 q 138 136 138 113 q 138 68 169 68 q 251 68 322 165 q 364 221 382 287 q 390 318 390 344 q 390 370 388 387 q 387 404 383 417 q 376 440 361 458 q 351 470 371 487 q 392 505 432 505 q 456 505 475 482 q 498 455 498 404 q 498 353 483 304 q 468 255 441 210 q 415 165 379 125 q 343 86 302 58 q 213 -5 124 -5 q 60 -5 37 47 z"},"O":{"x_min":0,"x_max":655,"ha":655,"o":"m 61 223 q 62 281 79 346 q 95 411 124 471 q 152 531 191 583 q 229 636 276 675 q 375 759 485 759 q 618 759 658 639 q 673 596 671 534 q 669 472 652 407 q 635 343 605 283 q 576 223 536 170 q 497 118 450 79 q 351 -5 252 -5 q 163 -5 111 53 q 58 113 61 223 z m 185 92 q 208 59 245 59 q 282 59 319 83 q 356 106 391 146 q 426 187 458 239 q 489 291 513 348 q 583 512 564 619 q 551 693 483 693 q 420 693 344 608 q 271 529 220 410 q 195 354 179 294 q 164 235 163 194 q 162 153 168 130 q 174 107 185 92 z"},"(":{"x_min":0,"x_max":479,"ha":479,"o":"m 583 890 q 604 890 604 875 q 604 865 582 848 l 542 817 q 524 803 504 786 q 434 718 391 656 q 348 593 318 538 q 289 482 266 417 q 217 274 217 120 q 217 4 251 -88 q 283 -171 328 -201 q 337 -207 337 -214 q 337 -221 334 -226 q 331 -232 326 -236 q 314 -246 297 -246 q 280 -246 258 -232 q 235 -217 214 -192 q 192 -166 173 -131 q 154 -95 140 -53 q 109 39 109 126 q 109 213 125 289 q 140 364 166 432 q 192 500 226 559 q 260 619 298 668 q 368 761 447 824 q 532 890 583 890 z"},"C":{"x_min":0,"x_max":534,"ha":534,"o":"m 48 205 l 48 219 q 54 365 122 495 q 185 614 281 687 q 375 759 465 759 q 534 759 573 712 q 607 671 607 611 q 607 540 555 471 q 524 431 490 413 q 474 404 460 404 q 446 404 435 410 q 423 416 414 425 q 396 444 396 459 q 396 474 404 480 q 484 538 513 599 q 524 622 524 645 q 524 692 479 692 q 409 692 334 615 q 264 544 217 438 q 167 328 165 236 l 164 217 q 164 107 210 73 q 227 61 250 61 q 273 61 294 67 q 314 73 335 83 q 368 100 420 142 q 436 154 446 139 q 455 126 455 109 q 455 82 447 72 q 439 62 421 48 q 403 34 376 22 q 315 -5 256 -5 q 197 -5 161 10 q 125 24 100 51 q 48 107 48 205 z"},"W":{"x_min":0,"x_max":941,"ha":941,"o":"m 196 10 q 187 -4 162 -4 q 137 -4 120 10 q 103 23 92 44 q 69 85 69 126 q 69 167 78 210 q 87 253 103 301 q 119 348 139 398 q 160 448 184 495 q 231 594 279 666 l 273 666 q 215 666 166 640 q 153 630 142 630 q 119 630 97 653 q 46 707 157 742 q 209 759 241 759 q 273 759 293 749 q 312 739 326 726 q 348 704 357 683 q 366 662 366 646 q 366 630 356 604 q 347 577 332 547 l 299 482 q 281 449 264 412 q 246 375 229 337 q 211 300 197 265 q 167 187 167 132 q 167 102 173 80 l 225 165 q 381 417 533 544 q 576 580 618 601 q 625 604 634 604 q 644 604 654 602 q 665 600 674 595 q 695 585 695 570 q 695 563 690 558 l 673 539 q 576 436 542 250 q 531 193 531 159 q 531 126 533 114 q 535 102 541 91 q 554 66 581 66 q 607 66 639 86 q 671 105 704 140 q 737 174 768 220 q 799 266 823 319 q 877 436 877 542 q 877 623 841 680 q 831 694 860 718 q 889 742 926 742 q 974 742 991 656 q 997 628 997 582 q 997 536 986 481 q 975 426 954 373 q 934 321 906 272 q 879 224 846 182 q 813 140 777 106 q 740 71 702 47 q 624 -5 553 -5 q 489 -5 457 46 q 429 90 429 158 q 429 270 473 376 q 432 331 394 282 q 298 157 260 103 z"},"A":{"x_min":0,"x_max":616,"ha":616,"o":"m 364 111 q 364 177 402 313 q 284 310 222 306 q 203 271 187 240 l 157 180 q 97 62 49 24 q 12 -5 -29 -5 q -60 -5 -76 16 q -82 24 -83 31 q -84 39 -80 42 q -23 62 12 105 q 42 144 73 200 l 128 298 l 98 294 q 68 289 68 303 q 68 318 86 331 q 117 354 146 361 l 167 366 q 247 499 289 551 q 332 604 366 639 q 401 674 440 701 q 524 759 606 759 q 631 759 640 749 q 655 733 649 715 q 644 696 632 662 q 554 449 537 398 q 544 399 551 399 l 562 399 q 616 399 620 388 q 621 385 621 376 q 621 367 615 355 q 610 343 597 335 q 571 317 510 314 q 477 200 472 156 q 468 112 475 96 q 483 81 497 81 q 511 81 520 84 q 528 86 535 90 l 548 96 q 553 99 558 99 q 563 99 566 92 q 570 85 570 75 q 570 64 561 49 q 552 34 537 22 q 503 -5 460 -5 q 394 -5 372 54 q 364 74 364 90 z m 267 383 q 354 395 428 396 q 441 438 457 479 l 487 558 q 503 595 518 628 l 546 688 q 445 662 346 513 q 325 481 305 448 z"},"f":{"x_min":0,"x_max":394,"ha":394,"o":"m -20 -107 q -20 -97 -5 -67 q 11 -36 29 11 q 47 59 64 110 q 81 161 98 220 l 136 349 l 85 335 q 66 335 54 355 q 51 360 51 368 q 51 375 62 385 q 74 395 91 404 q 125 421 162 431 l 166 444 q 179 485 191 530 q 203 574 217 616 q 230 658 247 696 q 264 733 287 762 q 338 823 415 823 q 471 823 504 793 q 538 763 538 711 q 538 657 507 618 q 481 585 449 585 q 410 585 396 621 q 392 630 392 637 q 392 647 406 656 q 433 677 444 711 q 447 722 447 732 q 447 772 416 772 q 373 772 337 675 q 326 645 315 609 l 270 454 q 314 460 334 460 q 354 460 370 456 q 386 451 398 443 q 427 424 427 396 q 427 368 400 368 l 338 371 q 287 371 244 366 l 204 225 q 165 81 140 15 q 115 -50 92 -96 q 70 -137 25 -137 q -20 -137 -20 -107 z"},"Q":{"x_min":0,"x_max":655,"ha":655,"o":"m 222 -5 l 163 -10 q 143 -10 135 4 q 128 19 135 27 q 142 35 158 42 q 175 49 200 57 q 224 64 255 79 q 286 94 321 123 q 357 153 391 192 q 425 231 456 279 q 487 326 510 377 q 560 490 560 587 q 560 696 477 696 q 415 696 345 630 q 279 569 233 475 q 187 380 187 296 q 187 252 197 229 q 211 200 238 169 q 239 166 239 160 q 239 155 234 146 q 229 137 221 130 q 200 111 179 111 q 158 111 139 124 q 121 137 107 159 q 77 207 77 267 q 77 328 91 388 q 106 448 132 502 q 158 557 195 604 q 232 651 276 686 q 371 759 477 759 q 605 759 647 637 q 662 594 662 538 q 662 483 648 433 q 633 382 609 334 q 584 287 552 243 q 521 199 485 162 q 415 88 348 54 q 390 41 437 13 l 509 -31 q 569 -68 602 -80 q 635 -91 652 -91 q 669 -91 677 -87 q 684 -84 689 -80 l 699 -72 q 704 -69 708 -69 q 722 -69 722 -88 q 722 -107 715 -121 q 708 -135 694 -146 q 665 -173 619 -173 q 574 -173 539 -160 q 503 -148 474 -129 q 444 -111 417 -89 q 390 -67 360 -48 q 292 -5 222 -5 z"},"w":{"x_min":0,"x_max":751,"ha":751,"o":"m 40 36 q 35 50 35 62 q 35 93 45 123 q 55 153 64 179 l 107 290 q 132 357 138 384 q 143 411 136 421 q 129 430 120 437 q 111 444 103 450 q 95 456 95 464 q 95 473 102 480 q 109 488 121 494 q 145 505 170 505 q 195 505 209 500 q 224 495 233 487 q 251 471 251 448 q 251 426 243 397 q 236 369 224 337 q 213 306 199 271 l 172 204 q 140 123 133 82 q 179 98 255 194 q 337 300 401 436 q 408 453 419 458 q 437 466 463 465 q 506 464 507 439 q 508 424 499 406 q 490 387 484 375 l 465 336 q 408 220 408 148 q 408 98 436 79 q 443 73 459 73 q 476 73 498 85 q 520 96 540 116 q 560 136 577 163 q 594 189 607 220 q 634 284 634 333 q 634 417 602 458 q 591 470 608 487 q 626 505 665 505 q 712 505 729 452 q 736 432 736 392 q 736 352 722 303 q 708 254 684 209 q 660 164 628 125 q 597 85 562 57 q 488 -5 424 -5 q 315 -5 315 136 q 315 168 321 199 q 264 115 197 56 q 130 -3 93 -3 q 55 -3 40 36 z"},"-":{"x_min":0,"x_max":452,"ha":452,"o":"m 111 264 q 83 264 83 285 q 83 305 98 322 q 123 353 137 352 l 363 352 q 384 352 384 332 q 384 312 370 294 q 345 264 327 264 z"},"E":{"x_min":0,"x_max":510,"ha":510,"o":"m 509 651 q 509 692 460 692 q 367 692 291 605 q 246 555 228 496 q 219 467 219 445 q 219 423 224 410 q 229 397 237 389 q 254 371 276 375 q 300 385 318 385 q 336 385 347 380 q 358 375 365 369 q 379 355 379 342 q 379 317 363 316 q 337 314 310 302 q 282 291 253 272 q 225 253 203 229 q 153 176 153 122 q 153 96 165 83 q 186 60 214 60 q 242 60 269 71 q 296 82 318 97 q 352 121 383 158 q 398 177 410 177 q 422 177 428 163 q 434 149 434 133 q 434 101 422 86 q 410 70 391 55 q 373 40 348 26 q 287 -5 217 -5 q 99 -5 56 72 q 40 101 40 131 q 40 162 49 188 q 58 213 72 236 q 86 258 104 276 q 122 293 139 307 q 172 333 194 336 q 139 358 120 422 q 114 442 114 472 q 114 501 125 536 q 137 572 157 604 q 178 637 206 665 q 234 693 269 714 q 342 759 424 759 q 509 759 551 717 q 585 683 585 629 q 585 569 534 507 q 503 470 479 457 q 454 443 440 442 q 426 441 414 446 q 402 450 394 458 q 374 476 374 491 q 374 509 386 519 l 430 550 q 509 608 509 651 z"},"s":{"x_min":0,"x_max":423,"ha":423,"o":"m 12 86 q 12 101 18 114 q 25 127 35 136 q 55 155 78 155 q 97 155 97 135 q 97 84 131 64 q 143 57 156 57 q 169 57 179 60 q 188 62 196 69 q 213 83 213 103 q 213 122 205 138 q 196 155 183 173 l 155 212 q 96 290 96 356 q 96 411 143 455 q 195 505 278 505 q 350 505 391 470 q 424 441 424 404 q 424 365 395 342 q 368 322 342 327 q 330 330 324 339 q 317 349 321 361 q 325 373 325 386 q 325 399 320 411 q 315 422 307 430 q 290 446 271 446 q 252 446 240 442 q 228 438 219 430 q 200 412 200 386 q 200 361 208 342 q 217 324 230 305 q 243 287 258 268 q 273 249 286 228 q 317 178 317 141 q 317 104 301 78 q 286 53 261 35 q 208 -4 142 -4 q 79 -4 42 26 q 12 51 12 86 z"},">":{"x_min":0,"x_max":606,"ha":606,"o":"m 94 43 q 73 43 73 71 q 73 103 100 118 l 439 316 l 90 519 q 73 528 73 539 q 73 549 77 555 q 80 562 86 566 q 98 576 113 576 q 129 576 141 569 l 535 352 q 574 329 574 315 q 574 302 544 287 l 111 48 q 102 43 94 43 z"},"l":{"x_min":0,"x_max":279,"ha":279,"o":"m 74 268 l 115 390 q 203 644 216 782 q 221 823 256 823 q 279 823 293 812 q 322 791 321 765 q 320 738 312 700 q 303 663 290 618 q 277 573 260 523 l 192 325 q 134 156 134 107 q 134 81 156 81 q 176 81 193 89 q 210 98 215 98 q 225 98 225 88 q 225 44 181 15 q 151 -5 126 -5 q 102 -5 86 1 q 71 7 59 20 q 47 32 39 52 q 32 72 32 98 q 32 124 44 168 q 56 212 74 268 z"},"8":{"x_min":0,"x_max":524,"ha":524,"o":"m 358 336 q 413 246 413 177 q 413 96 351 44 q 291 -5 210 -5 q 125 -5 81 47 q 48 86 48 138 q 48 230 153 298 q 186 319 224 333 q 155 431 155 527 q 155 625 220 693 q 282 759 373 760 q 458 761 506 710 q 551 664 551 590 q 551 426 360 337 z m 323 392 q 443 456 443 577 q 443 642 414 673 q 388 701 346 697 q 308 694 280 661 q 250 626 250 577 q 250 532 266 495 q 282 458 295 437 z m 261 283 q 148 244 148 147 q 148 82 199 58 q 216 50 236 50 q 255 50 271 57 q 288 63 301 76 q 330 104 330 142 q 330 175 315 203 q 300 230 287 247 z"},"\\":{"x_min":0,"x_max":464,"ha":464,"o":"m 380 -147 q 380 -170 362 -170 q 308 -170 294 -114 l 52 841 q 47 861 47 873 q 47 890 62 890 q 87 890 108 877 q 129 864 135 842 q 370 -91 375 -114 q 380 -136 380 -147 z"},"e":{"x_min":0,"x_max":472,"ha":472,"o":"m 40 171 q 42 213 54 252 q 66 291 87 327 q 107 364 135 396 q 163 429 195 453 q 265 505 336 505 q 419 505 447 437 q 457 413 457 381 q 456 349 444 322 q 433 295 412 273 q 391 250 363 233 q 334 215 300 203 q 231 179 152 178 q 150 171 149 157 q 149 144 152 127 q 156 110 164 97 q 182 67 215 67 q 271 67 325 101 q 344 112 356 124 q 368 136 377 136 q 386 136 392 125 q 399 115 399 102 q 399 76 384 57 q 323 -5 201 -5 q 129 -5 86 38 q 37 87 40 171 z m 325 440 q 274 440 227 370 q 187 310 162 227 q 244 235 304 291 q 359 344 359 392 q 359 440 325 440 z"},"b":{"x_min":0,"x_max":526,"ha":526,"o":"m 40 139 q 40 167 44 193 q 48 219 54 245 q 61 271 69 298 l 124 465 q 189 668 206 782 q 211 823 246 823 q 266 823 280 812 q 306 792 305 768 q 305 744 299 715 q 292 686 283 652 q 273 618 261 580 q 229 483 212 440 l 185 368 q 227 434 254 458 q 308 505 366 505 q 451 505 479 416 q 489 385 489 339 q 489 293 475 248 q 462 203 439 164 q 416 125 385 94 q 355 63 321 41 q 250 -5 183 -5 q 116 -5 77 36 q 40 77 40 139 z m 176 59 q 222 59 270 100 q 342 162 367 278 q 375 316 375 358 q 375 399 366 416 q 356 432 337 432 q 318 432 297 417 q 276 401 253 375 q 230 350 208 316 q 185 283 167 247 q 127 168 127 114 q 127 59 176 59 z"},"%":{"x_min":0,"x_max":876,"ha":876,"o":"m 108 15 q 108 29 122 48 q 135 67 142 76 q 149 85 172 113 q 628 676 654 706 q 695 761 746 761 q 770 761 770 745 q 770 724 723 662 l 633 550 l 335 189 l 219 54 q 197 25 178 12 q 159 -2 134 -2 q 108 -2 108 15 z m 111 423 q 75 458 75 525 q 75 607 138 682 q 204 759 290 759 q 376 759 405 684 q 415 658 415 627 q 415 597 407 569 q 399 542 386 516 q 372 490 353 468 q 333 445 310 428 q 287 411 260 401 q 233 391 205 391 q 176 391 153 399 q 129 407 111 423 z m 203 444 q 229 444 257 481 q 298 534 314 610 q 319 634 319 649 q 319 664 318 674 q 317 683 313 690 q 305 706 290 706 q 275 706 262 697 q 250 688 237 672 q 224 656 211 635 q 199 614 189 591 q 169 539 169 492 q 169 444 203 444 z m 476 69 q 466 95 466 125 q 466 156 473 184 q 481 211 495 237 q 509 263 529 286 q 548 309 572 326 q 624 364 681 364 q 767 364 795 289 q 805 263 805 232 q 805 201 798 174 q 790 146 776 121 q 763 95 743 72 q 724 49 701 32 q 650 -5 595 -5 q 503 -5 476 69 z m 594 49 q 619 49 647 85 q 689 138 705 215 q 710 238 710 253 q 710 269 709 278 q 708 288 704 295 q 696 310 681 310 q 666 310 653 301 q 640 292 627 276 q 614 260 602 240 q 590 219 580 195 q 560 144 560 96 q 560 49 594 49 z"},"m":{"x_min":0,"x_max":815,"ha":815,"o":"m 403 413 q 375 413 300 331 q 244 267 218 235 l 174 179 q 146 125 130 90 l 104 33 q 93 12 86 4 q 78 -5 65 -5 q 52 -5 40 0 q 28 4 20 12 q 1 27 1 46 q 1 53 12 75 l 30 114 q 39 132 51 159 l 78 226 q 136 370 136 412 q 136 435 121 445 l 111 452 q 106 456 106 464 q 106 473 113 480 q 120 488 130 494 q 152 505 175 505 q 197 505 209 500 q 222 496 231 487 q 250 470 250 452 q 250 433 245 414 q 240 396 233 376 q 226 357 217 339 q 198 297 193 287 q 188 278 190 280 q 280 396 298 417 q 335 460 356 477 q 395 505 429 505 q 464 505 484 484 q 505 462 505 427 q 505 396 489 355 q 474 313 468 297 l 540 392 l 580 439 q 616 480 644 493 q 671 505 688 505 q 706 505 722 499 q 739 493 751 481 q 776 457 776 417 q 776 379 758 339 q 741 299 728 274 q 714 248 702 222 q 667 145 667 107 q 667 81 688 81 q 708 81 725 89 q 742 98 747 98 q 757 98 757 88 q 757 44 713 15 q 683 -5 658 -5 q 634 -5 619 1 q 604 7 591 20 q 564 48 564 90 q 564 133 575 168 q 585 204 600 238 q 615 271 630 299 q 645 327 652 344 q 668 378 668 394 q 668 413 648 413 q 622 413 553 326 q 501 258 481 228 l 448 179 q 419 125 404 90 l 379 33 q 370 12 363 4 q 356 -5 344 -5 q 332 -5 321 -1 q 309 3 301 9 q 282 23 282 39 q 282 55 292 83 q 303 110 318 145 l 387 289 q 423 370 423 391 q 423 413 403 413 z m 452 275 q 452 275 452 276 l 453 277 q 452 276 452 275 z"},"#":{"x_min":0,"x_max":726,"ha":726,"o":"m 359 -5 q 343 -5 343 10 q 343 20 350 36 q 356 52 363 72 l 405 205 l 287 205 l 232 52 q 218 15 190 0 q 180 -5 164 -5 q 148 -5 148 10 q 148 20 155 36 q 161 52 168 72 l 210 205 l 81 205 q 53 205 53 226 q 53 246 68 262 q 96 291 117 290 l 237 290 l 272 400 l 145 400 q 116 400 116 421 q 116 441 132 457 q 160 486 180 485 l 300 485 l 370 704 q 381 732 401 746 q 421 759 447 759 q 473 759 473 738 q 473 726 466 706 l 386 485 l 495 485 l 565 704 q 576 732 596 746 q 616 759 642 759 q 668 759 668 738 q 668 726 661 706 l 582 485 l 691 485 q 713 485 713 466 q 713 445 698 429 q 670 400 646 400 l 551 400 l 512 290 l 627 290 q 649 290 649 271 q 649 250 634 234 q 606 205 582 205 l 482 205 l 428 52 q 406 -5 359 -5 z m 433 290 l 468 400 l 356 400 l 317 290 z"},",":{"x_min":0,"x_max":313,"ha":313,"o":"m 9 -109 l 32 -85 q 77 -39 77 -3 q 77 27 57 61 q 50 72 46 81 q 41 90 47 106 q 54 121 73 132 q 92 144 113 144 q 134 144 147 138 q 161 132 170 121 q 188 100 188 69 q 188 37 179 12 q 170 -13 155 -36 q 141 -59 122 -78 q 104 -98 84 -112 q 64 -126 46 -134 q 27 -142 13 -142 q -1 -142 -1 -131 q -1 -121 9 -109 z"},"n":{"x_min":0,"x_max":561,"ha":561,"o":"m 387 413 q 372 413 344 384 q 316 355 296 331 l 254 281 l 174 179 q 146 125 130 90 l 104 33 q 93 12 86 4 q 78 -5 65 -5 q 52 -5 40 0 q 28 4 20 12 q 1 27 1 46 q 1 53 12 75 l 30 114 q 39 132 51 159 l 78 226 q 136 370 136 412 q 136 435 121 445 l 111 452 q 106 456 106 464 q 106 473 113 480 q 120 488 130 494 q 152 505 175 505 q 197 505 209 500 q 221 496 229 487 q 248 470 248 452 q 248 433 243 414 q 238 396 231 376 q 224 357 216 338 q 208 320 202 306 l 192 285 q 188 277 190 280 q 245 355 262 377 l 296 418 q 333 462 355 476 q 398 505 423 505 q 448 505 465 499 q 482 493 495 481 q 522 456 522 417 q 522 379 504 337 q 487 295 474 269 q 461 243 449 216 q 413 134 413 97 q 413 81 439 81 q 459 81 476 89 q 493 98 498 98 q 508 98 508 88 q 508 44 464 15 q 434 -5 409 -5 q 384 -5 368 0 q 352 6 339 18 q 310 43 310 90 q 310 146 346 231 q 372 290 382 311 l 399 346 q 414 377 414 395 q 414 413 387 413 z"},"h":{"x_min":0,"x_max":555,"ha":555,"o":"m 388 413 q 361 413 292 331 l 251 281 l 173 179 q 145 125 128 90 l 102 33 q 92 12 84 4 q 77 -5 64 -5 q 51 -5 39 0 q 27 4 18 12 q 0 27 0 46 q 0 53 10 75 l 29 114 q 121 302 195 591 q 222 697 234 782 q 240 823 274 823 q 297 823 312 812 q 340 792 339 768 q 338 744 332 714 q 326 684 317 649 q 308 614 296 576 q 264 478 248 434 q 200 303 189 280 q 196 289 208 304 q 297 421 318 444 q 339 466 354 479 q 384 505 432 505 q 470 505 494 479 q 516 455 516 425 q 516 396 509 372 q 502 348 492 324 q 482 299 470 273 l 445 222 q 411 145 411 107 q 411 81 433 81 q 453 81 470 89 q 487 98 492 98 q 502 98 502 88 q 502 44 458 15 q 428 -5 403 -5 q 378 -5 362 0 q 345 5 333 17 q 304 43 304 95 q 304 150 340 233 l 393 346 q 408 377 408 395 q 408 413 388 413 z"},"z":{"x_min":0,"x_max":430,"ha":430,"o":"m 120 79 q 202 106 271 106 q 318 106 343 80 q 366 57 366 17 q 366 7 360 1 q 354 -5 345 -5 q 335 -5 324 0 q 313 6 299 12 q 207 54 96 5 q 82 -1 72 -4 q 62 -7 49 -1 q 36 5 25 15 q -3 39 5 63 q 14 87 32 116 q 51 145 76 173 q 100 201 128 229 q 203 298 236 326 q 312 391 329 407 q 346 422 352 432 q 309 412 239 405 q 221 403 209 403 q 159 403 137 421 q 116 439 116 475 q 116 489 123 497 q 129 505 137 505 q 146 505 160 500 q 174 495 194 489 q 246 472 286 472 q 325 472 341 476 q 356 480 369 484 l 391 493 q 401 497 412 497 q 422 497 430 490 q 438 484 445 475 q 459 454 459 435 q 459 416 439 388 q 418 361 386 331 q 354 301 315 270 l 238 206 q 148 129 120 79 z m 114 65 q 115 66 115 66 q 114 66 114 65 z"},"B":{"x_min":0,"x_max":552,"ha":552,"o":"m 56 72 q 45 100 46 138 q 47 177 57 232 q 67 287 88 349 q 135 494 217 605 q 231 625 246 625 q 262 625 277 618 q 292 611 303 602 q 331 578 321 563 q 252 453 208 364 q 319 372 404 435 q 496 502 496 600 q 496 666 431 684 q 411 689 383 689 q 355 689 326 683 q 296 678 269 668 q 215 648 170 615 q 157 606 146 606 q 136 606 123 612 q 110 617 101 625 q 62 658 111 692 q 182 742 320 757 q 346 759 389 759 q 433 759 478 745 q 523 731 550 707 q 601 662 601 582 q 601 510 543 439 q 491 375 409 334 q 448 316 468 285 q 488 253 487 217 q 486 181 472 150 q 459 120 436 95 q 414 70 384 52 q 354 33 320 21 q 252 -5 183 -5 q 84 -5 56 72 z m 174 285 q 137 193 135 125 q 134 91 151 73 q 168 56 199 56 q 229 56 261 69 q 293 82 320 104 q 382 156 384 222 q 385 281 330 303 q 313 309 294 311 q 271 310 230 299 q 189 289 174 285 z"},"K":{"x_min":0,"x_max":616,"ha":616,"o":"m 601 72 q 610 72 610 61 q 610 50 603 40 q 596 29 582 19 q 548 -4 510 -4 q 473 -4 449 7 q 426 18 406 37 q 386 56 369 80 q 353 104 338 131 l 309 184 q 259 279 224 295 q 125 29 12 0 q 4 -2 -5 -2 q -14 -2 -21 1 q -29 4 -34 9 q -45 18 -45 29 q -45 39 -38 45 q 47 107 133 364 q 183 514 202 635 q 208 668 208 687 q 188 686 170 676 q 153 667 141 659 q 128 651 121 651 q 113 651 104 656 q 95 661 87 668 q 70 686 70 699 q 70 712 78 721 q 86 729 99 736 q 111 742 126 747 q 141 751 155 754 q 182 759 201 759 q 221 759 242 753 q 264 747 279 735 q 313 710 313 674 q 313 596 267 428 q 251 373 232 318 q 351 410 376 430 q 401 451 431 480 q 461 510 484 541 q 534 609 534 678 q 534 704 521 723 q 517 729 517 735 q 517 741 522 746 q 526 750 533 754 q 546 759 566 759 q 585 759 601 751 q 617 742 628 729 q 649 702 649 665 q 649 627 634 593 q 619 558 594 527 q 568 496 536 468 q 503 440 468 415 l 396 364 q 361 340 331 315 q 367 288 414 218 l 452 162 q 492 100 517 81 q 542 62 558 62 q 575 62 585 67 q 595 72 601 72 z"},"R":{"x_min":0,"x_max":623,"ha":623,"o":"m 523 591 q 523 688 395 688 q 314 688 231 639 q 208 625 194 613 q 181 601 168 601 q 156 601 145 607 q 134 613 125 623 q 93 658 132 691 q 190 742 326 756 q 354 759 396 759 q 438 759 484 744 q 531 729 562 703 q 626 651 626 570 q 626 474 538 395 q 462 325 358 295 q 386 272 411 228 l 450 158 q 501 63 542 55 q 556 52 571 56 q 586 59 591 59 q 596 59 597 51 q 599 43 593 31 q 587 20 574 9 q 543 -15 507 -12 q 470 -10 448 3 q 425 15 407 34 q 389 53 375 77 q 361 100 350 125 l 328 172 q 317 196 309 213 q 300 229 293 243 q 287 257 279 269 q 263 294 237 301 q 134 37 28 0 q 20 -3 10 -3 q 1 -3 -6 0 q -13 3 -18 8 q -28 17 -28 28 q -28 40 -21 45 q 52 98 142 355 l 171 438 q 221 581 256 614 q 268 623 281 623 q 294 623 304 619 q 314 615 321 608 q 338 594 338 579 q 338 563 331 552 q 325 540 316 518 q 292 456 279 418 l 254 348 q 358 361 438 429 q 523 500 523 591 z"},"T":{"x_min":0,"x_max":472,"ha":472,"o":"m 430 651 q 418 620 406 577 l 350 386 q 246 42 128 0 q 120 -3 107 -3 q 94 -3 86 0 q 78 3 73 8 q 62 17 62 25 q 62 34 66 37 l 79 45 q 149 91 208 289 l 243 408 q 291 569 332 661 q 293 664 273 664 q 215 664 190 648 q 165 632 155 613 q 145 594 145 587 q 143 573 136 570 q 128 566 118 566 q 107 566 96 573 q 85 581 78 593 q 62 617 65 647 q 69 677 85 698 q 102 720 124 734 q 166 759 212 759 q 258 759 299 755 q 340 750 381 744 q 490 729 520 729 q 550 729 564 733 q 579 736 589 743 q 599 750 603 752 q 607 754 617 754 q 631 754 629 732 q 627 710 619 694 q 610 678 595 668 q 581 657 562 652 q 543 647 512 647 q 480 647 430 651 z"},"P":{"x_min":0,"x_max":554,"ha":554,"o":"m 4 -3 q -13 -3 -21 4 q -35 17 -35 28 q -35 40 -28 45 q 46 98 136 357 l 165 439 q 214 580 249 614 q 261 623 274 623 q 288 623 297 619 q 307 615 314 608 q 331 594 331 574 q 331 567 324 553 q 317 540 309 518 l 247 345 q 365 367 442 443 q 515 515 515 591 q 515 663 450 685 q 428 693 399 693 q 370 693 340 686 q 310 678 280 667 q 221 643 184 610 q 174 601 162 601 q 150 601 140 606 q 130 611 122 619 q 104 636 104 654 q 104 671 117 686 q 129 700 150 711 q 171 723 199 732 q 226 741 255 747 q 313 759 371 759 q 429 759 477 745 q 525 730 557 706 q 620 657 620 582 l 620 574 q 615 482 550 412 q 493 351 402 315 q 321 283 248 283 l 235 283 q 229 283 223 284 q 179 173 143 119 q 106 64 72 31 q 37 -3 4 -3 z"},"|":{"x_min":0,"x_max":307,"ha":307,"o":"m 215 486 l 215 257 l 215 -95 q 215 -128 193 -150 q 173 -170 149 -170 q 126 -170 125 -130 q 125 -118 125 -104 l 125 815 q 125 845 144 868 q 163 890 189 890 q 207 890 211 867 q 215 848 215 813 z"},"t":{"x_min":0,"x_max":359,"ha":359,"o":"m 319 128 q 333 128 333 109 q 333 93 324 78 q 311 49 271 24 q 226 -5 181 -5 q 102 -5 81 65 q 56 149 156 419 q 100 424 95 439 q 93 443 93 448 q 93 454 98 460 q 103 467 110 474 q 127 488 145 488 l 183 488 q 236 611 258 628 q 269 636 282 636 q 295 636 304 633 q 313 629 320 623 q 335 608 335 590 q 335 581 330 568 l 293 489 l 305 489 q 335 489 354 490 q 354 490 382 490 q 391 491 405 491 q 419 491 419 480 q 419 416 267 416 l 263 416 l 229 330 q 173 178 173 117 q 173 100 181 90 q 189 81 210 81 q 232 81 250 88 q 267 95 280 104 q 293 113 303 121 q 312 128 319 128 z"},"M":{"x_min":0,"x_max":932,"ha":932,"o":"m 878 99 q 890 99 890 81 q 890 64 884 53 q 877 42 869 32 q 861 23 848 15 q 818 -5 785 -5 q 752 -5 733 3 q 714 11 700 27 q 669 61 669 121 q 669 184 694 276 q 718 367 741 432 q 764 498 788 557 l 832 668 q 759 604 648 396 l 530 172 q 436 -5 395 -5 q 355 -5 341 29 q 328 62 328 140 q 328 219 340 291 q 353 363 372 432 q 405 553 458 673 q 406 644 344 544 q 296 465 276 428 l 150 196 q 72 53 24 20 q -11 -5 -51 -5 q -85 -5 -100 17 q -106 25 -106 33 q -106 40 -102 42 q -71 50 -59 59 q -46 68 -34 77 q -22 87 1 118 q 25 149 52 193 q 80 236 109 291 l 171 405 q 257 571 351 671 q 384 707 417 726 q 449 749 491 757 q 503 759 513 759 q 523 759 535 756 q 548 753 557 747 q 579 732 570 708 q 566 693 555 664 l 528 594 q 436 339 427 130 q 453 175 479 228 l 535 336 l 593 447 q 727 696 842 732 q 866 740 882 740 q 898 740 908 736 q 917 732 924 726 q 941 710 936 694 q 931 677 922 652 l 851 445 l 826 364 q 784 224 776 148 q 773 117 783 99 q 793 81 811 81 q 828 81 838 84 q 848 86 855 90 l 868 96 q 874 99 878 99 z"},"g":{"x_min":0,"x_max":527,"ha":527,"o":"m 321 106 q 247 -5 157 -5 q 75 -5 47 82 q 37 112 37 155 q 37 199 50 242 q 62 286 83 325 q 105 364 134 397 q 163 430 196 454 q 266 505 334 505 q 402 505 432 441 q 438 448 442 454 q 447 461 453 467 q 466 479 475 479 q 485 479 495 476 q 506 473 516 467 q 540 453 534 440 q 507 382 489 326 l 417 96 q 331 -167 200 -243 q 165 -264 140 -267 q 114 -270 103 -267 q 92 -264 83 -259 q 64 -247 64 -237 q 64 -220 87 -216 q 109 -212 134 -198 q 159 -183 182 -163 q 274 -77 321 106 z m 155 86 q 165 66 184 66 q 203 66 221 79 q 240 93 260 116 q 281 140 301 171 q 322 203 340 240 q 381 321 398 395 q 396 408 381 422 q 354 449 331 449 q 309 449 286 435 q 264 421 243 398 q 223 374 206 343 q 188 311 175 276 q 162 241 155 204 q 147 167 147 144 q 147 120 149 108 q 150 96 155 86 z"},"j":{"x_min":0,"x_max":281,"ha":281,"o":"m 167 615 q 146 640 146 665 q 146 689 154 702 q 162 714 174 722 q 198 737 219 737 q 239 737 251 734 q 262 731 272 725 q 296 708 296 685 q 296 662 289 647 q 283 631 272 620 q 261 608 248 601 q 234 594 219 593 q 204 591 190 597 q 177 604 167 615 z m 176 505 q 243 505 243 468 q 243 366 189 188 q 128 -12 35 -140 q -38 -239 -118 -269 q -126 -272 -138 -272 q -151 -272 -162 -264 q -173 -257 -173 -247 q -173 -229 -160 -225 q -87 -201 -9 -49 q 61 86 100 246 q 125 347 125 412 q 125 435 110 445 l 101 452 q 96 456 96 464 q 96 473 103 480 q 110 488 121 494 q 145 505 176 505 z"},"i":{"x_min":0,"x_max":286,"ha":286,"o":"m 194 615 q 173 640 173 665 q 173 689 181 702 q 189 714 201 722 q 225 737 245 737 q 266 737 278 734 q 289 731 299 725 q 323 708 323 685 q 323 662 316 647 q 310 631 299 620 q 288 608 274 601 q 261 594 246 593 q 230 591 217 597 q 204 604 194 615 z m 199 91 q 211 91 211 75 q 211 53 191 29 q 162 -5 113 -5 q 56 -5 35 41 q 27 57 27 80 q 27 103 35 131 q 43 159 55 190 q 67 221 82 253 l 107 314 q 136 383 136 405 q 136 427 131 434 q 126 441 121 445 l 111 452 q 106 456 106 464 q 106 473 113 480 q 120 488 130 494 q 152 505 182 505 q 253 505 253 468 q 253 424 230 367 q 208 311 191 276 l 162 209 q 130 135 130 102 q 130 81 151 81 q 172 81 183 86 q 194 91 199 91 z"},"y":{"x_min":0,"x_max":550,"ha":550,"o":"m 34 47 q 28 63 28 84 q 28 105 35 131 q 42 156 54 184 q 65 212 78 241 l 104 300 q 155 413 142 434 q 136 443 120 452 q 114 456 114 464 q 114 473 121 480 q 128 488 140 494 q 164 505 188 505 q 211 505 224 500 q 236 495 244 487 q 260 471 260 452 q 260 432 254 408 q 248 384 237 355 q 227 327 215 297 q 181 218 169 192 l 151 155 q 136 121 136 107 q 136 94 141 88 q 145 83 156 83 q 168 83 182 91 q 196 100 212 115 q 228 129 245 149 q 263 168 279 189 q 323 243 344 281 q 449 476 456 484 q 472 505 488 505 q 504 505 517 502 q 529 498 538 491 q 557 477 550 459 q 542 442 531 411 q 438 142 411 76 q 383 9 363 -31 q 342 -71 315 -112 q 287 -153 256 -187 q 185 -263 122 -269 q 98 -271 84 -262 q 60 -247 60 -234 q 60 -221 82 -216 q 104 -210 128 -195 q 151 -180 173 -159 q 238 -98 273 -25 q 304 38 322 95 l 360 211 q 346 194 329 171 l 294 124 q 248 66 218 42 q 160 -5 115 -5 q 54 -5 34 47 z"},"@":{"x_min":0,"x_max":905,"ha":905,"o":"m 595 152 q 595 129 619 129 q 651 129 692 158 q 763 209 792 302 q 805 343 805 364 l 805 389 q 805 490 738 549 q 672 607 557 607 q 427 607 329 547 q 195 465 157 295 q 145 243 145 190 q 145 137 160 91 q 174 44 206 8 q 273 -69 403 -69 q 486 -69 575 -38 q 593 -31 593 -47 q 593 -88 487 -115 q 431 -130 371 -130 q 311 -130 250 -111 q 188 -91 144 -53 q 49 29 49 176 q 49 316 124 436 q 195 548 312 614 q 431 681 562 681 q 721 681 807 603 q 887 529 887 402 l 887 392 q 887 307 837 224 q 773 115 667 80 q 633 68 608 68 q 583 68 567 73 q 552 77 540 87 q 515 107 515 147 q 515 163 519 182 q 467 101 409 73 q 388 63 367 63 q 346 63 327 72 q 308 81 294 96 q 263 130 263 178 q 263 227 274 264 q 284 302 302 335 q 320 368 344 395 q 368 421 396 440 q 452 480 508 480 q 563 480 592 423 q 617 474 638 479 q 644 480 652 480 q 660 480 671 477 q 683 473 690 466 q 709 451 700 433 q 639 307 624 265 q 595 185 595 152 z m 561 354 q 550 422 502 422 q 473 422 440 386 q 390 330 372 242 q 366 214 366 186 q 366 131 398 131 q 460 131 541 307 q 552 332 561 354 z m 539 250 q 539 250 539 250 z"},".":{"x_min":0,"x_max":270,"ha":270,"o":"m 49 129 q 68 145 89 145 q 110 145 125 142 q 140 139 153 133 q 184 117 184 88 q 184 51 160 24 q 137 -1 113 -4 q 89 -6 74 0 q 59 6 48 17 q 37 27 30 41 q 24 55 24 73 q 24 92 31 106 q 38 121 49 129 z"},"p":{"x_min":0,"x_max":551,"ha":551,"o":"m 123 46 q 122 39 101 -31 q 81 -101 67 -142 q 37 -233 17 -256 q 0 -273 -22 -273 q -50 -273 -65 -246 q -69 -238 -69 -229 q -69 -219 -55 -188 q -16 -107 48 130 q 74 224 83 257 l 98 318 q 113 379 116 401 q 119 422 113 431 q 108 440 101 445 q 94 450 88 453 q 83 457 83 466 q 84 475 92 482 q 99 490 109 495 q 131 505 154 505 q 176 505 188 500 q 201 495 209 485 q 227 466 225 448 q 220 411 214 384 q 300 505 392 505 q 475 505 503 419 q 513 389 513 345 q 513 302 500 258 q 487 214 464 175 q 442 136 412 103 q 382 70 349 46 q 279 -5 216 -5 q 154 -5 123 46 z m 375 221 q 406 293 406 358 q 406 393 396 413 q 387 432 368 432 q 349 432 328 417 q 307 402 284 378 q 261 353 238 321 q 216 289 198 255 q 180 220 169 186 q 158 152 158 124 q 158 95 170 77 q 183 59 207 59 q 230 59 254 72 q 278 84 300 106 q 322 128 342 158 q 361 188 375 221 z"},"X":{"x_min":0,"x_max":553,"ha":553,"o":"m 451 -5 q 319 -5 265 246 q 209 163 138 86 q 52 -4 2 -4 q -26 -4 -38 5 q -69 30 -38 45 q -21 53 18 85 q 57 117 94 156 q 184 248 241 345 q 222 431 216 514 q 210 597 210 616 q 210 648 213 665 q 215 683 226 700 q 236 718 252 731 q 284 759 324 759 q 333 759 335 755 q 338 750 338 742 q 338 729 333 696 q 323 629 323 581 q 323 509 330 445 l 420 570 q 540 735 626 755 q 632 756 638 758 q 645 759 655 759 q 665 759 677 756 q 690 753 700 749 q 723 737 714 722 q 712 719 706 716 q 700 712 689 707 q 657 689 627 665 q 547 607 419 438 l 350 345 q 394 148 458 94 q 473 81 487 81 q 501 81 510 84 q 519 86 526 90 l 538 96 q 543 99 548 99 q 559 99 559 88 q 559 46 515 16 q 485 -5 451 -5 z"},"*":{"x_min":0,"x_max":518,"ha":518,"o":"m 476 556 q 405 560 341 523 l 366 500 q 423 445 423 422 q 423 394 388 380 q 379 377 369 377 q 359 377 355 385 l 325 436 q 308 464 288 494 q 263 480 240 461 l 200 425 q 183 408 169 398 q 156 388 146 395 q 136 401 136 414 q 136 427 144 441 q 152 455 166 470 q 192 499 232 528 q 169 571 154 617 q 142 655 175 677 q 191 688 195 679 q 199 669 207 657 q 214 645 225 632 q 249 600 271 578 l 271 587 q 271 663 295 720 q 301 736 310 744 q 327 760 363 760 q 400 760 415 743 q 419 737 419 728 q 419 719 412 711 l 396 690 q 355 639 320 569 l 346 587 q 396 624 446 634 q 468 639 484 620 q 499 604 499 580 q 499 555 476 556 z"},"Y":{"x_min":0,"x_max":581,"ha":581,"o":"m 126 128 q 126 82 162 82 q 226 82 329 244 q 360 292 391 345 l 450 454 q 578 702 598 736 q 607 754 625 754 q 644 754 656 749 q 668 744 677 735 q 697 716 687 696 q 653 633 624 554 l 501 214 q 482 162 461 114 q 440 66 414 19 q 388 -29 358 -72 q 328 -115 295 -152 q 263 -188 229 -216 q 156 -273 89 -273 q 77 -273 64 -268 q 52 -262 50 -251 q 47 -240 53 -236 q 59 -232 69 -229 q 204 -178 323 40 q 358 104 388 174 q 422 265 432 292 l 383 217 q 229 -5 122 -5 q 49 -5 24 59 q 17 79 17 93 l 17 111 q 17 170 86 336 l 188 572 q 217 643 217 659 q 217 676 211 684 q 205 692 198 697 l 185 707 q 179 711 179 719 q 179 727 187 734 q 194 742 207 748 q 232 759 257 759 q 282 759 295 754 q 309 749 317 741 q 334 725 334 702 q 334 680 326 649 q 317 618 303 582 q 290 545 271 505 l 197 342 q 126 186 126 136 z"},"c":{"x_min":0,"x_max":465,"ha":465,"o":"m 33 168 q 34 211 47 253 q 59 295 80 333 q 101 371 129 402 q 158 434 191 457 q 262 505 339 505 q 419 505 448 441 q 458 418 458 389 q 457 360 448 336 q 439 312 426 293 q 396 250 366 250 q 333 250 316 269 q 302 285 308 306 q 309 312 316 318 q 324 323 335 334 q 367 367 368 412 q 369 442 331 442 q 290 442 245 396 q 180 329 153 225 q 129 134 162 92 q 181 67 213 67 q 269 67 320 106 q 335 119 345 131 q 355 144 363 144 q 372 144 377 136 q 383 128 383 115 q 383 86 357 59 q 291 -5 197 -5 q 118 -5 74 41 q 31 85 33 168 z"},"!":{"x_min":0,"x_max":417,"ha":417,"o":"m 184 188 q 160 188 160 256 q 160 350 209 497 q 253 628 309 705 q 339 747 369 755 q 385 759 398 759 q 412 759 422 757 q 432 755 440 751 q 457 743 457 731 q 457 719 447 705 q 438 691 416 658 q 395 625 366 571 q 296 442 230 267 q 224 249 219 235 q 214 220 209 210 q 199 188 184 188 z m 104 129 q 123 145 144 145 q 166 145 180 142 q 195 139 208 133 q 239 117 239 88 q 239 51 215 24 q 192 -1 168 -4 q 144 -6 129 0 q 114 6 103 17 q 92 27 85 41 q 79 55 79 73 q 79 92 86 106 q 93 121 104 129 z"},"/":{"x_min":0,"x_max":406,"ha":406,"o":"m -78 -152 q -78 -138 -66 -120 l -28 -54 l 393 701 l 440 783 q 460 818 474 839 q 506 890 554 890 q 577 890 577 871 q 577 847 541 792 q 532 779 515 750 q 42 -92 26 -118 q 10 -145 -8 -157 q -27 -170 -52 -170 q -78 -170 -78 -152 z"},"[":{"x_min":0,"x_max":396,"ha":396,"o":"m 207 -140 q 207 -170 77 -170 q 30 -170 18 -162 q 5 -155 2 -147 q -1 -140 -1 -131 q -1 -117 5 -102 q 11 -86 21 -55 l 318 806 l 339 861 q 350 890 412 890 q 505 890 519 877 q 524 872 524 865 q 524 858 518 854 q 512 851 503 848 q 494 845 483 843 q 472 840 459 835 q 435 825 421 796 q 414 779 399 740 l 326 532 q 143 -14 134 -37 q 117 -85 117 -103 q 117 -117 145 -117 q 185 -117 201 -130 q 207 -134 207 -140 z"},"6":{"x_min":0,"x_max":555,"ha":555,"o":"m 269 683 q 357 759 446 759 q 509 759 543 722 q 573 688 573 639 q 573 590 547 550 q 521 511 484 505 q 454 501 434 520 q 416 536 416 558 q 416 575 428 581 q 495 614 495 659 q 495 674 485 686 q 475 697 451 697 q 428 697 402 684 q 377 671 352 648 q 328 625 304 594 q 281 563 261 527 q 219 454 198 371 q 245 427 314 445 q 338 452 365 452 q 392 452 417 441 q 442 431 462 410 q 504 364 504 284 q 504 202 460 133 q 421 71 356 32 q 295 -5 242 -5 q 189 -5 157 14 q 125 34 105 64 q 85 95 77 133 q 68 171 68 228 q 68 284 83 354 q 99 424 126 485 q 154 546 190 596 q 227 647 269 683 z m 188 83 q 203 54 233 54 q 271 54 311 92 q 373 150 395 244 q 401 274 401 298 q 401 322 398 337 q 394 353 387 364 q 371 388 340 388 q 309 388 279 368 q 249 348 226 314 q 203 279 189 234 q 175 188 175 156 q 175 125 178 110 q 181 96 188 83 z"},"r":{"x_min":0,"x_max":408,"ha":408,"o":"m 26 83 q 126 328 126 412 q 125 436 110 445 l 100 452 q 96 456 95 464 q 95 473 102 480 q 108 488 118 494 q 139 505 161 505 q 184 505 196 500 q 208 496 217 487 q 236 470 236 450 q 236 431 232 411 q 227 391 221 371 q 214 352 208 335 q 202 317 200 309 q 196 292 197 288 q 208 298 211 308 l 230 344 q 293 458 354 495 q 372 505 396 505 q 421 505 436 488 q 451 471 452 450 q 453 429 449 415 q 445 401 438 389 q 422 361 399 361 q 393 361 387 366 l 376 375 q 360 389 345 389 q 331 389 309 370 q 288 350 265 319 q 188 217 139 91 l 118 34 q 109 13 103 4 q 97 -5 84 -5 q 72 -5 59 0 q 47 4 37 12 q 27 19 21 28 q 16 37 15 44 q 15 50 18 60 q 21 69 26 83 z"},"2":{"x_min":0,"x_max":524,"ha":524,"o":"m 432 123 q 447 123 447 95 q 447 67 438 50 q 430 32 416 20 q 386 -5 336 -5 q 302 -5 259 9 q 215 23 192 29 q 169 36 150 36 q 130 36 118 32 q 106 28 96 22 q 86 16 77 10 q 58 -4 51 -4 q 43 -4 37 0 q 30 4 24 10 q 10 25 10 33 q 10 42 19 63 q 28 84 56 122 q 83 160 116 197 q 149 234 187 270 q 295 376 327 411 q 360 445 385 479 q 439 551 439 610 q 439 672 395 690 q 381 695 359 695 q 337 695 315 683 q 293 670 278 651 q 247 613 247 568 q 247 527 271 517 q 280 513 280 504 q 280 487 263 472 q 231 445 209 445 q 187 445 173 453 q 159 461 150 475 q 131 502 131 534 q 131 566 139 592 q 147 617 162 641 q 177 666 198 687 q 218 708 244 725 q 301 760 356 760 q 411 760 443 745 q 475 730 495 707 q 532 662 532 593 q 532 479 422 363 q 364 302 304 254 l 211 179 q 136 117 107 77 q 145 93 169 95 q 193 97 209 96 q 224 95 241 94 q 286 90 313 90 q 340 90 360 95 q 379 100 392 106 q 404 113 413 118 q 421 123 432 123 z"},"{":{"x_min":0,"x_max":425,"ha":425,"o":"m 147 -170 q 51 -170 51 -84 q 51 -26 98 94 l 122 157 q 148 223 148 264 q 148 333 104 343 q 97 345 97 354 q 97 364 100 373 q 102 381 106 389 q 118 407 134 408 q 220 414 271 556 q 285 597 294 634 q 294 634 311 701 q 337 809 377 852 q 412 890 464 890 q 537 890 547 878 q 551 874 551 868 q 551 841 507 841 q 482 841 465 820 q 447 798 434 764 q 420 729 409 688 l 389 604 q 329 362 187 357 q 246 333 246 252 q 246 198 216 124 q 157 -21 157 -80 q 157 -122 186 -122 q 222 -122 222 -144 q 222 -170 147 -170 z"},"9":{"x_min":0,"x_max":555,"ha":555,"o":"m 73 150 q 98 177 131 177 q 155 177 164 167 q 179 152 170 141 q 149 111 148 91 q 147 71 150 63 q 153 56 158 52 q 167 43 181 43 q 248 43 309 122 q 370 201 406 333 q 374 303 332 285 q 290 267 255 267 q 221 267 197 275 q 172 283 153 302 q 109 344 109 427 q 109 568 200 666 q 256 726 325 748 q 359 759 398 759 q 437 759 467 744 q 498 729 517 703 q 553 656 553 580 q 553 576 553 571 q 553 567 552 562 q 538 319 427 154 q 356 49 266 9 q 220 -11 180 -11 q 140 -11 117 -3 q 94 6 79 20 q 64 34 57 52 q 50 71 50 89 q 50 107 56 123 q 62 139 73 150 z m 386 691 q 346 691 305 651 q 245 594 223 490 q 216 458 216 432 q 216 407 219 391 q 223 375 229 362 q 244 335 270 335 q 295 335 317 345 q 339 355 359 374 q 379 393 396 418 q 412 444 424 475 q 450 539 450 615 q 450 691 386 691 z"}," ":{"x_min":0,"x_max":307,"ha":307,"o":""},"I":{"x_min":0,"x_max":328,"ha":328,"o":"m -4 45 q 81 107 167 364 q 216 514 236 635 q 241 668 241 687 q 221 686 204 676 l 167 655 q 152 646 127 668 q 102 689 104 704 q 106 719 121 729 q 135 738 154 745 q 194 759 221 759 q 249 759 269 755 q 290 751 307 741 q 346 719 347 677 q 349 604 298 430 q 217 154 107 42 q 78 11 45 0 q 37 -3 28 -3 q 19 -3 11 0 q 4 3 -1 8 q -11 17 -11 28 q -11 40 -4 45 z"},"H":{"x_min":0,"x_max":669,"ha":669,"o":"m 491 359 q 431 364 373 364 q 316 364 254 357 q 177 140 88 47 q 55 12 20 0 q 11 -3 2 -3 q -7 -3 -14 0 q -21 3 -25 8 q -36 18 -36 29 q -36 40 -28 45 q 49 101 136 334 q 132 333 129 333 q 125 332 121 330 q 116 329 109 333 q 102 337 97 345 q 84 362 93 371 q 110 386 159 399 q 224 602 227 687 q 207 686 189 676 l 152 655 q 137 646 112 668 q 88 688 91 707 q 94 735 169 753 q 195 759 210 759 q 226 759 240 759 q 255 758 268 755 q 316 743 328 713 q 333 699 333 680 q 333 661 329 635 q 325 608 317 575 q 302 503 276 421 q 382 434 496 434 l 517 434 l 544 514 q 589 649 599 718 q 605 759 640 759 q 663 759 677 748 q 705 728 704 705 q 703 682 695 653 q 688 624 676 588 q 665 553 649 512 l 619 429 l 630 428 q 638 427 644 427 q 651 426 656 424 q 666 420 666 410 q 666 401 660 390 q 655 380 645 371 q 620 348 587 347 q 527 190 518 155 q 508 120 508 107 q 508 81 529 81 q 548 81 561 87 l 578 96 q 583 98 588 98 q 599 98 599 88 q 599 44 548 15 q 515 -4 479 -4 q 430 -4 410 40 q 403 55 403 69 q 403 101 413 133 q 423 166 435 199 z"},"4":{"x_min":0,"x_max":529,"ha":529,"o":"m 507 496 q 507 443 442 310 q 461 312 471 312 q 480 312 489 306 q 498 300 505 292 q 522 272 522 261 q 522 250 517 246 q 512 242 499 244 q 475 248 453 248 l 423 248 q 417 248 410 247 q 354 143 325 96 q 265 -4 225 -4 q 205 -4 205 14 q 205 33 223 62 q 243 99 264 145 l 307 240 q 217 232 189 232 q 137 232 119 237 q 101 243 91 252 q 81 261 73 273 q 57 299 57 315 q 58 331 69 353 l 133 472 q 211 621 222 742 q 224 760 249 760 q 276 760 294 746 q 327 720 327 691 q 327 663 318 632 q 310 601 295 567 q 280 533 261 497 q 242 461 222 427 q 169 342 145 307 q 164 296 208 296 q 271 296 332 301 l 354 357 q 386 439 393 476 q 404 517 409 538 q 413 560 421 560 q 453 560 480 539 q 507 518 507 496 z"},"~":{"x_min":0,"x_max":625,"ha":625,"o":"m 165 431 q 209 458 245 458 q 281 458 302 449 q 324 440 341 427 q 357 415 370 399 q 383 384 395 371 q 424 340 448 340 q 472 340 488 349 q 504 358 517 372 q 538 395 549 419 q 561 443 567 447 q 574 452 582 452 q 590 452 597 445 q 604 438 604 420 q 603 402 594 381 q 586 361 573 342 q 559 323 540 306 q 522 289 501 276 q 457 249 420 249 q 384 249 363 258 q 342 267 325 280 q 309 292 296 308 q 283 323 271 336 q 242 367 219 367 q 195 367 179 358 q 164 349 151 335 q 138 321 128 304 l 109 272 q 101 256 88 256 q 76 256 69 263 q 62 270 63 287 q 63 305 72 326 q 80 346 94 365 q 107 384 125 401 q 144 418 165 431 z"},"D":{"x_min":0,"x_max":630,"ha":630,"o":"m 48 115 q 52 147 67 203 q 81 259 104 322 q 155 468 225 582 q 235 597 250 600 q 271 603 288 603 q 304 603 317 599 q 330 595 337 589 q 352 577 342 563 q 254 430 188 238 q 163 165 158 136 q 153 108 151 97 q 149 87 149 79 q 149 63 169 63 q 190 63 215 73 q 241 82 270 99 q 299 117 331 142 q 362 167 393 198 q 423 229 450 265 q 477 301 497 341 q 541 429 541 514 q 541 631 446 670 q 413 683 377 683 q 341 683 316 678 q 291 674 268 666 q 222 649 190 621 q 182 616 170 616 q 158 616 145 623 q 131 630 121 640 q 96 664 101 686 q 106 717 195 740 q 269 759 344 759 q 419 759 480 739 q 540 718 578 684 q 648 618 648 508 q 648 363 547 228 q 455 102 328 37 q 245 -5 176 -5 q 122 -5 83 27 q 41 61 48 115 z"},"^":{"x_min":0,"x_max":541,"ha":541,"o":"m 153 356 q 146 347 136 347 q 126 347 118 350 q 109 353 103 357 q 86 369 92 377 l 292 750 q 298 759 321 759 q 345 759 351 750 l 526 377 q 532 369 520 361 q 500 347 486 347 q 472 347 465 356 l 319 607 z"},"0":{"x_min":0,"x_max":622,"ha":622,"o":"m 220 -5 q 145 -5 105 42 q 66 89 66 180 q 66 180 66 196 q 66 255 86 333 q 106 410 134 470 q 162 531 198 584 q 235 637 279 676 q 374 759 475 759 q 582 759 614 655 q 625 620 625 588 q 625 556 621 515 q 618 475 601 409 q 584 343 556 283 q 528 223 492 170 q 456 117 412 78 q 319 -5 220 -5 z m 527 614 q 527 696 465 696 q 407 696 336 606 q 270 522 221 397 q 169 268 162 157 q 159 111 175 85 q 191 59 219 59 q 247 59 272 73 q 297 87 322 113 q 347 138 371 173 q 395 207 417 247 q 439 288 458 332 q 477 376 491 422 q 527 536 527 604 z"},"F":{"x_min":0,"x_max":519,"ha":519,"o":"m 467 320 q 453 320 438 322 q 422 323 401 323 q 355 324 302 319 q 290 277 261 216 q 233 155 206 112 q 147 21 87 0 q 78 -3 69 -3 q 60 -3 53 0 q 45 3 41 8 q 30 17 30 28 q 30 40 38 45 q 107 95 180 298 q 175 297 169 295 q 164 294 160 292 q 156 291 151 291 q 146 291 140 294 q 134 297 129 302 q 118 312 118 321 q 118 330 127 338 q 135 346 148 354 q 171 367 207 379 l 233 461 q 280 605 322 661 q 282 664 263 664 q 206 664 180 648 q 155 632 145 613 q 135 594 135 587 q 133 573 126 570 q 119 566 108 566 q 98 566 86 573 q 75 581 68 593 q 52 617 56 647 q 59 677 75 698 q 92 720 114 734 q 156 759 202 759 q 248 759 289 755 q 331 750 372 744 q 480 729 510 729 q 540 729 554 733 q 569 736 579 743 q 589 750 594 752 q 598 754 607 754 q 622 754 620 732 q 618 710 609 694 q 600 678 586 668 q 557 647 513 647 q 468 647 405 653 q 389 620 374 567 l 329 406 q 375 413 399 413 q 423 413 439 408 q 455 403 467 395 q 495 375 495 348 q 494 320 467 320 z"},"`":{"x_min":0,"x_max":219,"ha":219,"o":"m 150 763 q 146 682 146 671 q 146 632 160 599 q 177 572 177 564 q 177 557 171 552 q 165 547 152 547 q 139 547 118 562 q 98 577 80 601 q 38 657 37 714 q 37 742 51 757 q 78 785 112 785 q 138 785 147 773 q 150 769 150 763 z"},"k":{"x_min":0,"x_max":498,"ha":498,"o":"m 358 -4 q 248 -4 182 206 q 156 158 139 119 l 109 53 q 97 25 86 10 q 75 -5 61 -5 q 47 -5 36 0 q 25 4 17 12 q 0 27 0 46 q 0 53 10 75 l 29 114 q 121 302 195 591 q 222 697 234 782 q 240 823 274 823 q 295 823 309 812 q 335 792 334 767 q 333 743 327 713 q 322 683 312 647 q 303 611 292 572 q 260 470 244 426 l 198 300 q 189 277 185 267 q 298 312 354 369 q 389 403 389 433 q 389 448 379 455 q 369 461 365 465 q 361 469 365 478 q 368 488 383 497 q 398 505 419 505 q 441 505 455 501 q 470 498 480 489 q 504 472 504 441 q 504 410 491 384 q 478 357 450 333 q 395 286 273 242 q 289 177 329 128 q 368 81 400 81 q 417 81 429 87 l 447 96 q 452 99 457 99 q 469 99 469 84 q 469 71 465 62 q 460 52 452 42 q 444 31 432 21 q 400 -4 358 -4 z"},"u":{"x_min":0,"x_max":553,"ha":553,"o":"m 491 96 q 502 96 502 85 q 502 42 460 14 q 432 -5 394 -5 q 362 -5 346 10 q 316 36 316 74 q 316 123 356 222 q 281 121 251 87 q 221 54 198 35 q 149 -5 110 -5 q 49 -5 29 47 q 23 63 23 84 q 23 105 31 131 q 38 156 49 184 q 60 212 73 241 l 100 300 q 150 413 137 434 q 131 443 115 452 q 109 456 109 464 q 109 473 116 480 q 124 488 135 494 q 159 505 183 505 q 207 505 219 500 q 231 495 239 487 q 255 471 255 452 q 255 432 249 408 q 243 384 232 355 q 222 327 210 297 q 176 218 165 192 l 146 155 q 131 121 131 107 q 131 94 136 88 q 140 83 152 83 q 163 83 178 93 q 193 104 211 122 q 229 140 249 164 q 269 188 287 213 q 324 263 341 293 q 444 476 451 484 q 467 505 483 505 q 500 505 512 502 q 524 498 533 491 q 553 476 546 461 q 427 212 417 148 q 415 126 415 118 q 415 81 438 81 q 458 81 472 89 q 486 96 491 96 z"},"]":{"x_min":0,"x_max":395,"ha":395,"o":"m 257 860 q 257 890 387 890 q 434 890 446 883 q 459 875 462 867 q 465 860 465 852 q 465 837 459 822 q 453 806 442 775 l 146 -85 l 125 -141 q 114 -170 52 -170 q -41 -170 -55 -156 q -61 -151 -61 -145 q -61 -138 -54 -134 q -47 -130 -37 -128 q -27 -125 -15 -122 q -3 -120 10 -114 q 34 -104 47 -76 q 55 -59 69 -20 l 143 188 q 326 734 334 757 q 352 805 352 823 q 352 837 324 837 q 282 837 264 851 q 257 854 257 860 z"},"U":{"x_min":0,"x_max":625,"ha":625,"o":"m 503 128 q 503 81 538 81 q 559 81 575 90 q 592 99 597 99 q 607 99 607 88 q 607 45 562 16 q 530 -5 502 -5 q 474 -5 456 2 q 439 8 426 22 q 399 52 399 110 q 399 156 417 216 q 434 277 441 302 l 391 225 q 233 -5 125 -5 q 51 -5 27 57 q 20 77 20 92 l 20 110 q 20 172 89 336 l 190 572 q 220 643 220 659 q 220 676 214 684 q 208 692 201 697 l 188 707 q 182 711 182 719 q 182 727 189 734 q 197 742 210 748 q 235 759 260 759 q 285 759 298 754 q 312 749 320 741 q 337 725 337 702 q 337 680 329 649 q 320 618 306 582 q 292 545 274 505 l 200 342 q 129 186 129 136 l 129 128 q 129 82 165 82 q 229 82 332 244 q 363 292 394 345 l 453 454 q 581 702 601 736 q 610 754 628 754 q 646 754 659 749 q 671 744 680 735 q 700 716 690 696 q 644 608 577 414 q 503 200 503 128 z"},"o":{"x_min":0,"x_max":514,"ha":514,"o":"m 182 451 q 253 505 330 505 q 431 505 466 417 q 492 353 469 262 q 449 179 394 109 q 340 39 266 10 q 229 -5 193 -5 q 157 -5 129 4 q 101 14 81 33 q 60 53 48 83 q 37 113 36 154 q 36 195 46 237 q 57 279 76 318 q 95 357 122 391 q 149 425 182 451 z m 342 235 q 372 314 371 375 q 371 429 349 443 q 340 449 324 449 q 309 449 288 435 q 268 420 247 396 q 227 372 208 339 q 188 306 174 270 q 159 234 151 196 q 142 158 143 124 q 143 90 153 71 q 163 51 186 51 q 208 51 230 67 q 251 82 272 107 q 292 133 311 166 q 329 199 342 235 z"},"N":{"x_min":0,"x_max":708,"ha":708,"o":"m 523 50 l 523 34 q 523 18 514 8 q 505 -1 489 -1 q 473 -1 454 12 q 434 25 412 57 q 390 88 369 142 q 347 196 333 257 q 305 378 305 510 q 305 576 312 636 l 306 627 q 215 497 145 237 q 111 116 99 9 q 97 -5 75 -5 q 40 -5 24 30 q 19 43 19 66 q 19 89 28 133 q 36 177 51 231 q 66 284 88 344 q 109 403 135 461 q 161 519 190 572 q 220 625 251 665 q 320 754 381 757 q 414 759 423 747 q 433 733 425 700 q 411 643 411 586 q 411 530 413 492 q 416 453 421 414 q 426 375 433 337 q 440 299 448 265 q 467 188 487 145 q 502 185 521 226 l 594 386 q 654 521 654 604 q 654 681 623 697 q 615 700 613 709 q 611 719 616 728 q 622 737 630 744 q 649 760 673 760 q 697 760 717 750 q 737 740 750 724 q 775 692 775 649 q 775 605 760 559 q 745 513 722 463 q 698 413 669 361 l 613 259 q 546 137 526 73 q 523 63 523 50 z"},"+":{"x_min":0,"x_max":618,"ha":618,"o":"m 302 119 q 279 119 279 146 l 279 334 l 103 334 q 69 334 69 358 q 69 375 80 386 q 101 406 119 405 l 279 405 l 279 564 q 278 583 290 595 q 309 614 326 614 q 350 614 350 581 l 350 405 l 537 405 q 564 405 564 382 q 564 365 554 354 q 534 334 511 334 l 350 334 l 350 172 q 350 150 338 139 q 319 119 302 119 z"},"G":{"x_min":0,"x_max":598,"ha":598,"o":"m 50 205 l 51 219 q 56 365 125 495 q 187 613 284 687 q 379 759 469 759 q 537 759 576 712 q 610 671 610 611 q 610 540 558 471 q 528 431 494 413 q 478 404 464 404 q 450 404 438 410 q 426 416 418 425 q 399 444 399 459 q 399 474 407 480 q 487 538 517 599 q 527 622 527 645 q 527 692 482 692 q 411 692 335 611 q 264 537 215 424 q 165 308 162 211 q 157 108 211 73 q 229 61 257 61 q 284 61 309 74 q 333 87 352 107 q 390 151 391 199 q 392 234 365 248 q 354 253 342 256 q 330 259 322 263 q 313 268 317 279 q 321 291 332 303 q 360 334 394 334 q 405 334 428 329 q 470 320 484 320 q 499 320 508 321 q 516 321 525 323 q 545 328 562 334 q 591 344 591 321 q 591 298 582 278 q 573 258 557 244 q 522 213 471 214 q 476 182 448 132 q 399 42 307 7 q 274 -5 233 -5 q 192 -5 158 10 q 124 24 100 51 q 50 106 50 205 z"},"q":{"x_min":0,"x_max":533,"ha":533,"o":"m 435 440 q 469 470 492 470 q 506 470 520 459 q 546 440 542 426 q 541 420 538 413 l 531 396 q 524 377 517 361 q 509 345 497 318 q 415 122 392 56 q 370 -10 360 -46 q 338 -127 338 -163 q 338 -214 344 -230 q 349 -247 347 -253 q 346 -260 340 -265 q 330 -273 313 -273 q 296 -273 284 -268 q 271 -262 261 -249 q 238 -220 240 -167 q 241 -95 308 59 l 339 132 q 300 71 272 46 q 215 -5 161 -5 q 77 -5 50 82 q 41 112 41 155 q 41 199 54 242 q 67 286 89 325 q 111 364 141 397 q 170 430 204 454 q 274 505 337 505 q 400 505 435 440 z m 184 68 q 234 68 300 167 q 367 268 394 388 q 392 421 366 437 q 357 442 340 442 q 322 442 298 429 q 274 416 253 394 q 231 372 212 343 q 193 313 179 280 q 148 209 148 139 q 148 68 184 68 z m 431 437 q 430 437 429 435 z"},"d":{"x_min":0,"x_max":557,"ha":557,"o":"m 523 99 q 533 99 533 88 q 533 46 490 16 q 461 -5 435 -5 q 410 -5 395 1 q 379 7 367 20 q 340 49 340 100 q 340 110 344 133 q 304 72 276 47 q 219 -5 164 -5 q 78 -5 51 73 q 41 102 41 146 q 41 189 54 233 q 67 278 90 318 q 113 358 143 392 q 173 427 206 452 q 277 505 335 505 q 393 505 427 458 q 512 750 555 802 q 573 823 593 823 q 626 823 644 804 q 649 798 649 792 q 649 785 641 768 q 633 751 618 713 q 575 598 557 545 q 512 409 497 357 l 470 267 q 435 146 435 114 q 435 81 459 81 q 481 81 494 87 l 513 96 q 518 99 523 99 z m 188 68 q 238 68 303 167 q 371 268 397 388 q 396 421 370 437 q 361 442 343 442 q 325 442 302 429 q 278 416 256 394 q 233 372 214 343 q 195 313 181 280 q 150 208 150 138 q 150 68 188 68 z"},"1":{"x_min":0,"x_max":406,"ha":406,"o":"m 112 8 q 96 -4 83 -4 q 69 -4 69 9 q 69 19 75 32 q 154 216 180 284 q 277 547 293 625 q 254 583 190 571 q 175 568 164 568 q 153 568 146 572 q 138 575 133 581 q 124 591 124 603 q 124 615 132 622 q 140 629 157 637 q 175 645 193 657 q 210 669 227 683 l 260 711 q 316 761 334 761 q 351 761 364 755 q 377 749 387 740 q 409 719 408 695 q 407 670 399 633 q 391 595 377 550 q 363 505 345 454 q 326 403 304 350 q 186 66 112 8 z"},"5":{"x_min":0,"x_max":541,"ha":541,"o":"m 236 475 q 290 504 329 504 q 369 504 397 496 q 425 487 446 467 q 492 424 492 339 q 492 261 451 181 q 410 101 341 50 q 268 -5 185 -5 q 115 -5 72 36 q 34 73 34 128 q 34 167 59 197 q 85 228 121 228 q 146 228 155 222 q 171 210 164 198 l 150 177 q 129 144 129 114 q 129 53 187 53 q 235 53 282 102 q 325 146 353 214 q 379 281 379 339 q 379 412 330 425 q 316 429 300 429 q 285 429 268 421 q 251 412 235 400 q 219 387 205 373 l 179 346 q 171 340 163 340 q 145 340 134 354 q 113 377 115 394 q 116 407 134 444 q 196 572 213 615 q 229 657 235 677 q 240 696 244 707 q 249 718 255 728 q 269 750 284 750 q 299 750 315 746 q 331 742 352 738 q 408 726 443 726 q 478 726 494 729 q 511 731 523 735 q 536 739 545 743 l 562 751 q 580 759 591 759 q 605 758 605 726 q 605 701 592 681 q 579 662 571 654 q 563 646 553 641 q 534 631 507 631 q 479 631 459 635 q 438 638 416 644 q 367 655 323 674 q 312 617 266 527 z"}}}
